<?xml version="1.0" encoding="UTF-8" standalone="no"?>
<svg
   xmlns:dc="http://purl.org/dc/elements/1.1/"
   xmlns:cc="http://creativecommons.org/ns#"
   xmlns:rdf="http://www.w3.org/1999/02/22-rdf-syntax-ns#"
   xmlns:svg="http://www.w3.org/2000/svg"
   xmlns="http://www.w3.org/2000/svg"
   xmlns:sodipodi="http://sodipodi.sourceforge.net/DTD/sodipodi-0.dtd"
   xmlns:inkscape="http://www.inkscape.org/namespaces/inkscape"
   version="1.1"
   id="svg889"
   width="200"
   height="200"
   viewBox="0 0 200 200"
   sodipodi:docname="openav-icon.svg"
   inkscape:version="1.0.2 (e86c8708, 2021-01-15)">
  <metadata
     id="metadata895">
    <rdf:RDF>
      <cc:Work
         rdf:about="">
        <dc:format>image/svg+xml</dc:format>
        <dc:type
           rdf:resource="http://purl.org/dc/dcmitype/StillImage" />
        <dc:title></dc:title>
      </cc:Work>
    </rdf:RDF>
  </metadata>
  <defs
     id="defs893" />
  <sodipodi:namedview
     pagecolor="#ffffff"
     bordercolor="#666666"
     borderopacity="1"
     objecttolerance="10"
     gridtolerance="10"
     guidetolerance="10"
     inkscape:pageopacity="0"
     inkscape:pageshadow="2"
     inkscape:window-width="1777"
     inkscape:window-height="1083"
     id="namedview891"
     showgrid="false"
     inkscape:zoom="3.56"
     inkscape:cx="100"
     inkscape:cy="122.47191"
     inkscape:window-x="0"
     inkscape:window-y="255"
     inkscape:window-maximized="0"
     inkscape:current-layer="layer1" />
  <g
     inkscape:groupmode="layer"
     id="layer1"
     inkscape:label="trace"
     style="display:inline">
    <path
       style="fill:#000000"
       d="M 0,100 V 0 H 100 200 V 100 200 H 100 0 Z m 36.646408,76.70973 c 1.569476,-1.80965 4.40809,-6.54512 6.308032,-10.52325 l 3.45444,-7.23298 16.456499,0.27325 16.4565,0.27325 4.292939,8.5 c 6.323997,12.52148 9.073047,14.03719 17.918362,9.8794 5.92572,-2.78542 8.80269,-6.45139 8.14527,-10.37909 -0.27621,-1.65017 -8.75435,-20.06195 -18.840323,-40.91507 C 70.870822,85.302086 70.672411,85.011339 62.462226,85.003738 55.112905,84.996934 53.760328,87.023716 34.435954,127 c -10.825898,22.39551 -17.84301,38.10484 -18.159077,40.65304 -0.443735,3.57748 -0.148695,4.47829 2.12894,6.5 2.97361,2.63948 9.992823,5.71029 13.240591,5.79258 1.229023,0.0311 3.366046,-1.3519 5,-3.23589 z M 57.047178,137.25 c 0.02595,-0.4125 1.320343,-3.20982 2.876435,-6.21626 l 2.829257,-5.46627 3.13796,6.21627 L 69.02879,138 h -6.014395 c -3.307917,0 -5.993165,-0.3375 -5.967217,-0.75 z m 86.027082,40.74594 c 1.96584,-0.54609 4.54247,-2.02351 5.72584,-3.28315 2.86335,-3.0479 36.1879,-76.496357 36.19464,-79.774229 0.006,-3.143998 -2.81031,-6.293663 -7.99306,-8.937703 -5.3463,-2.727477 -10.08844,-2.601864 -12.8526,0.340449 -1.20974,1.287719 -6.93596,13.968373 -12.72492,28.179233 C 138.7873,145.54176 139.43323,144.25156 138.16734,141 129.33687,118.31813 116.36108,87.987694 114.74452,86.25 c -3.79301,-4.077241 -12.85467,-2.076752 -18.631765,4.113224 -1.87762,2.011812 -2.269973,3.28053 -1.837902,5.943069 0.694615,4.280407 33.359127,76.550767 35.726647,79.045347 1.43325,1.51016 4.26429,2.62402 8.9985,3.54042 0.275,0.0532 2.10842,-0.35002 4.07426,-0.89612 z M 67.024751,72.4349 C 67.561138,71.024096 68,66.087657 68,61.465037 v -8.404763 l 3.639547,2.469863 C 74.283168,57.324147 76.617897,58 80.171665,58 89.6119,58 95.605322,53.243246 98.149222,43.731891 100.42929,35.206979 95.739115,24.460249 88.400297,21.393895 83.021659,19.146556 75.863352,19.603512 71.649363,22.463202 l -3.629731,2.463201 -0.618224,-2.463201 C 66.92959,20.583329 66.123742,20 63.998581,20 62.381878,20 60.959398,20.663423 60.606989,21.581787 60.273145,22.451771 60,34.286771 60,47.881787 60,65.773731 60.331396,72.931396 61.2,73.8 c 2.015072,2.015072 4.786563,1.365541 5.824751,-1.3651 z M 75.418438,51.031147 C 74.27358,50.568003 72.13608,48.762001 70.668438,47.017808 68.590218,44.547984 68,42.787424 68,39.058133 68,23.961894 88.814328,21.832444 91.593067,36.644399 93.367193,46.101301 83.946158,54.480972 75.418438,51.031147 Z m -33.6286,6.066171 C 51.845567,51.940439 55.763965,40.341038 50.867293,30.225865 45.243899,18.609482 30.19043,15.625834 20.432337,24.193553 15.557074,28.47409 13.689249,32.545858 13.640238,39 13.577754,47.228365 18.095367,54.310472 25.5,57.592142 c 4.399035,1.949615 11.971826,1.719582 16.289838,-0.494824 z M 26.189824,49.974365 c -6.620356,-4.03632 -7.831771,-14.055585 -2.361779,-19.533603 6.479759,-6.489268 15.636087,-5.647682 20.212439,1.857787 7.014717,11.504518 -6.318276,24.706917 -17.85066,17.675816 z m 111.622166,6.62915 c 2.45883,-1.276181 3.23161,-2.2837 3,-3.911249 -0.35636,-2.504054 -2.60806,-2.663157 -9.53855,-0.673985 -2.43051,0.697599 -5.79983,0.917948 -7.92887,0.518538 C 119.02595,51.72664 113,46.22948 113,43.1 113,41.072959 113.4576,41 126.17126,41 140.94858,41 143,40.217333 143,34.579411 c 0,-8.231188 -7.43847,-14.534757 -17.1849,-14.562961 -6.78337,-0.01963 -10.33601,1.184423 -14.15438,4.797168 -4.36106,4.126219 -5.8244,7.774569 -5.79251,14.44168 0.0375,7.831889 3.61101,14.005437 10.13179,17.503317 3.84864,2.064488 5.51323,2.352374 11.5,1.988887 3.86261,-0.234518 8.48443,-1.19545 10.31199,-2.143987 z M 113,35.222506 c 0,-2.565016 2.67357,-6.002341 6.01104,-7.728217 6.04666,-3.126846 15.35475,-0.86938 16.58232,4.021664 C 136.86312,36.575067 135.96723,37 124.03138,37 114.12697,37 113,36.818411 113,35.222506 Z m 43.41821,23.170505 C 157.72703,57.890769 158,55.900691 158,46.860893 c 0,-13.465506 1.30269,-17.253767 6.71011,-19.513129 4.8398,-2.022198 9.83074,-0.881874 12.62633,2.88485 1.69871,2.288797 2.12031,4.804469 2.59583,15.489204 0.49958,11.225339 0.78356,12.797808 2.36577,13.099962 0.98892,0.188854 2.50748,-0.245412 3.37457,-0.965036 2.4542,-2.036806 1.43994,-25.267028 -1.30868,-29.973306 -5.38362,-9.218037 -18.80285,-10.845621 -25.11393,-3.046004 -1.06039,1.310498 -1.25,1.051168 -1.25,-1.709663 0,-3.069342 -0.18489,-3.236661 -3.25,-2.941129 L 151.5,20.5 151.22644,38.369149 c -0.30601,19.98863 0.1998,21.93946 5.19177,20.023862 z"
       id="path901" />
  </g>
</svg>
